<?xml version="1.0" encoding="iso-8859-1"?>
<!-- Generator: Adobe Illustrator 19.1.0, SVG Export Plug-In . SVG Version: 6.00 Build 0)  -->
<svg version="1.1" id="Capa_1" xmlns="http://www.w3.org/2000/svg" xmlns:xlink="http://www.w3.org/1999/xlink" x="0px" y="0px"
	 viewBox="0 0 487.976 487.976" style="enable-background:new 0 0 487.976 487.976;" xml:space="preserve">
<g>
	<g>
		<path d="M487.949,352.192l-1.3-15.4c-0.5-5.5-5.3-9.6-10.8-9.1l-15.1,1.3c-3.4-12.3-9.3-24.1-17.7-34.4l9.7-11.5
			c3.6-4.2,3-10.5-1.2-14.1l-11.8-10c-4.2-3.6-10.5-3-14.1,1.2l-9.6,11.4c-11.6-6.6-24.2-10.5-37-11.8l-1.3-14.7
			c-0.5-5.5-5.3-9.6-10.8-9.1l-15.4,1.3c-5.5,0.5-9.6,5.3-9.1,10.8l1.3,14.7c-12.4,3.4-24.2,9.4-34.6,17.9l-11.2-9.4
			c-4.2-3.6-10.5-3-14.1,1.2l-10,11.8c-3.6,4.2-3,10.5,1.2,14.1l11.2,9.4c-6.6,11.7-10.5,24.3-11.7,37.2l-14.7,1.3
			c-5.5,0.5-9.6,5.3-9.1,10.8l1.3,15.4c0.5,5.5,5.3,9.6,10.8,9.1l14.7-1.3c3.5,12.4,9.5,24.1,18,34.4l-9.6,11.4
			c-3.6,4.2-3,10.5,1.2,14.1l11.8,10c4.2,3.6,10.5,3,14.1-1.2l9.7-11.5c11.6,6.5,24.1,10.3,36.9,11.6l1.3,15.1
			c0.5,5.5,5.3,9.6,10.8,9.1l15.4-1.3c5.5-0.5,9.6-5.3,9.1-10.8l-1.3-15.2c12.3-3.5,23.9-9.4,34.2-17.8l11.7,9.9
			c4.2,3.6,10.5,3,14.1-1.2l10-11.8c3.6-4.2,3-10.5-1.2-14.1l-11.7-9.9c6.5-11.5,10.4-24,11.7-36.7l15.2-1.3
			C484.349,362.492,488.349,357.692,487.949,352.192z M408.749,387.792c-18.3,21.8-50.9,24.6-72.7,6.2
			c-21.8-18.3-24.6-50.9-6.2-72.7s50.9-24.6,72.7-6.2C424.249,333.492,427.049,365.992,408.749,387.792z"/>
		<path d="M252.049,298.292l-9.6-18.6c14.5-11.4,26.1-25.5,34.5-41.2l20.1,6.4c7.3,2.3,15.1-1.7,17.5-9.1l6.5-20.5
			c2.3-7.3-1.7-15.1-9.1-17.5l-20.2-6.4c2.1-17.6,0.7-35.7-4.6-53.4l18.9-9.8c6.8-3.5,9.5-11.9,6-18.8l-9.9-19.1
			c-3.5-6.8-11.9-9.5-18.8-6l-18.9,9.8c-11.3-14.5-25.3-26.1-40.9-34.6l6.4-20.2c2.3-7.3-1.7-15.1-9.1-17.5l-20.5-6.5
			c-7.3-2.3-15.1,1.7-17.5,9.1l-6.4,20.1c-17.7-2.2-35.9-0.8-53.6,4.4l-9.6-18.6c-3.5-6.8-11.9-9.5-18.8-6l-19.1,9.9
			c-6.8,3.5-9.5,11.9-6,18.8l9.5,18.4c-14.4,11.7-26.1,25.8-34.6,41.5l-19.6-6.2c-7.3-2.3-15.1,1.7-17.5,9.1l-6.5,20.5
			c-2.3,7.3,1.7,15.1,9.1,17.5l19.5,6.2c-2.2,17.8-0.8,36.2,4.5,54l-18.1,9.4c-6.8,3.5-9.5,11.9-6,18.8l9.9,19.1
			c3.5,6.8,11.9,9.5,18.8,6l18.1-9.4c11.5,14.6,25.7,26.4,41.5,34.9l-6.2,19.5c-2.3,7.3,1.7,15.1,9.1,17.5l20.5,6.5
			c7.3,2.3,15.1-1.7,17.5-9.1l6.2-19.6c17.7,2.1,36,0.6,53.8-4.8l9.5,18.4c3.5,6.8,11.9,9.5,18.8,6l19.1-9.9
			C252.949,313.492,255.549,305.092,252.049,298.292z M185.849,162.492c7.6,14.7,1.9,32.7-12.8,40.3s-32.7,1.9-40.3-12.8
			c-7.6-14.7-1.9-32.7,12.8-40.3S178.249,147.792,185.849,162.492z M119.949,96.892c8.6-4.5,17.6-7.4,26.7-8.8l-1.2,27.3
			c-5.1,1.2-10.1,3-14.9,5.5c-25.6,13.2-38.1,41.8-32.4,68.7l-22.5,11.5C63.649,160.992,81.449,116.792,119.949,96.892z
			 M201.649,254.692c-38.7,20-85.3,8.9-111-24.3l22.6-11.7c18.6,20.2,49.2,26.4,74.8,13.2c4.9-2.6,9.4-5.7,13.3-9.3l23.5,14.9
			C218.249,244.192,210.549,250.092,201.649,254.692z M218.949,194.792c4.7-15.2,3.7-32.1-4.2-47.3c-7.9-15.3-21.3-25.9-36.5-30.8
			l1.2-27.8c25,5.4,47.6,21.5,60.3,46c12.6,24.3,12.9,51.7,3.1,75.1L218.949,194.792z"/>
	</g>
</g>
<g>
</g>
<g>
</g>
<g>
</g>
<g>
</g>
<g>
</g>
<g>
</g>
<g>
</g>
<g>
</g>
<g>
</g>
<g>
</g>
<g>
</g>
<g>
</g>
<g>
</g>
<g>
</g>
<g>
</g>
</svg>
