<?xml version="1.0" encoding="utf-8"?>
<svg width="1034px" height="1034px" viewBox="-10 -5 1034 1034" version="1.1" xmlns="http://www.w3.org/2000/svg">
  <path fill="currentColor" d="M 505.726 7.279 C 364.781 7.279 245.913 56.069 149.12 153.648 C 99.874 202.438 62.303 257.747 36.407 319.575 C 10.511 381.403 -2.438 445.755 -2.438 512.631 C -2.438 579.506 10.298 643.227 35.77 703.794 C 61.242 764.36 98.389 818.828 147.209 867.197 C 196.03 915.566 251.22 952.579 312.777 978.236 C 374.333 1003.892 438.863 1016.721 506.363 1016.721 C 573.864 1016.721 639.03 1003.682 701.86 977.605 C 764.69 951.527 821.154 914.515 871.248 866.566 C 919.645 819.459 955.942 765.833 980.14 705.686 C 1004.339 645.54 1016.438 580.979 1016.438 512 C 1016.438 443.021 1004.126 378.249 979.504 317.682 C 954.881 257.116 918.371 202.858 869.974 154.91 C 770.634 56.489 649.218 7.279 505.726 7.279 Z M 508.274 98.129 C 623.747 98.129 722.237 138.506 803.748 219.262 C 843.653 258.798 873.795 303.592 894.173 353.644 C 914.55 403.696 924.739 456.48 924.739 512 C 924.739 627.244 884.834 723.562 805.021 800.952 C 764.266 841.33 718.204 871.824 666.836 892.433 C 615.468 913.042 562.401 923.347 507.637 923.347 C 452.872 923.347 400.231 913.042 349.711 892.433 C 299.191 871.824 253.979 841.961 214.073 802.845 C 174.168 763.729 143.389 718.935 121.737 668.463 C 100.086 617.991 89.261 565.626 89.261 511.369 C 89.261 457.111 100.086 404.957 121.737 354.905 C 143.389 304.854 174.168 259.639 214.073 219.262 C 293.885 138.506 391.952 98.129 508.274 98.129 Z M 507 221.785 C 430.584 221.785 374.546 253.33 338.885 316.42 C 310.866 366.051 296.857 431.244 296.857 512 C 296.857 592.755 310.866 657.949 338.885 707.579 C 374.546 770.669 430.584 802.214 507 802.214 C 583.416 802.214 639.454 770.669 675.114 707.579 C 703.983 657.949 718.417 592.755 718.417 512 C 718.417 431.244 703.983 366.051 675.114 316.42 C 639.454 253.33 583.416 221.785 507 221.785 Z M 507 331.562 C 512.944 331.562 519.312 332.404 526.104 334.086 C 540.538 345.862 542.661 360.584 532.472 378.249 L 420.395 581.399 C 417.848 562.052 416.575 538.918 416.575 512 C 416.575 464.051 420.82 426.617 429.311 399.699 C 443.744 354.275 469.642 331.562 507 331.562 Z M 591.057 424.935 C 595.302 448.49 597.425 477.511 597.425 512 C 597.425 559.948 593.18 597.382 584.689 624.3 C 570.256 669.725 544.358 692.437 507 692.437 C 500.208 692.437 493.84 692.017 487.896 691.176 L 480.254 688.652 C 455.632 677.716 450.962 661.313 466.245 639.442 L 591.057 424.935 Z" style=""/>
</svg>